<svg preserveAspectRatio="none" width="100%" height="100%" overflow="visible" style="display: block;" viewBox="0 0 21 21" fill="none" xmlns="http://www.w3.org/2000/svg">
<g id="_ailogo" clip-path="url(#clip0_3_4718)">
<path id="Vector" d="M19.598 6.2034H17.5762V0.05915L11.0055 5.61908V0.137987H9.99451V5.56001L3.9291 0V6.2034H1.40201V15.3013H3.92918V21L9.99468 15.4358V20.8612H11.0057V15.5702L17.071 20.9783V15.3014H19.5982L19.598 6.2034ZM16.5655 2.23878V6.2034H11.8799L16.5655 2.23878ZM4.94007 2.29792L9.20053 6.2034H4.94007V2.29792ZM2.4129 14.2905V7.21438H9.27955L3.92901 12.5647V14.2905H2.4129ZM4.94007 18.7008V15.3013L4.94016 12.9836L9.99442 7.92925V14.064L4.94007 18.7008ZM16.0601 18.7225L11.0056 14.2155V7.92908L16.0601 12.9836V18.7225ZM18.5873 14.2905H17.0709V12.5647L11.7204 7.21438H18.5873V14.2905Z" fill="var(--fill-0, black)"/>
</g>
<defs>
<clipPath id="clip0_3_4718">
<rect width="21" height="21" fill="white"/>
</clipPath>
</defs>
</svg>
